# xmcd CD database file
#
# Track frame offsets:
#	150
#	13275
#	27075
#	39525
#	51225
#	70875
#	92400
#	106500
#	125025
#	137100
#	150900
#	197475
#	208575
#	219000
#	230700
#	249565
#	264003
#	275323
#	290660
#	308923
#
# Disc length: 4335 seconds
#
# Revision: 0
# Processed by: cddbd v1.5.2PL0 Copyright (c) Steve Scherf et al.
# Submitted via: CDex 1.51
#
DISCID=1310ed14
DTITLE=Simone Nina - The very best
DYEAR=1994
DGENRE=Jazz
TTITLE0=Feeling good
TTITLE1=My baby just cares for me
TTITLE2=Don't let me be misunderstood
TTITLE3=I put a spell on you
TTITLE4=Don't explain
TTITLE5=Missisippi goddam
TTITLE6=Work song
TTITLE7=Love or leave me
TTITLE8=Nobody knows you when you're down and out
TTITLE9=The other woman
TTITLE10=Sinnerman
TTITLE11=Mood indigo
TTITLE12=I'm gonna leave you
TTITLE13=See-line woman
TTITLE14=I loves you Porgy
TTITLE15=Don't smoke in bed
TTITLE16=He needs me
TTITLE17=Love me or leave me - Different version
TTITLE18=Mood indigo - Different version
TTITLE19=My baby just cares for me - Different version
EXTD=YEAR: 1994
EXTT0=
EXTT1=
EXTT2=
EXTT3=
EXTT4=
EXTT5=
EXTT6=
EXTT7=
EXTT8=
EXTT9=
EXTT10=
EXTT11=
EXTT12=
EXTT13=
EXTT14=
EXTT15=
EXTT16=
EXTT17=
EXTT18=
EXTT19=
PLAYORDER=
